<svg id="e4MwTEul0rL1" xmlns="http://www.w3.org/2000/svg" xmlns:xlink="http://www.w3.org/1999/xlink" viewBox="0 0 300 300" shape-rendering="geometricPrecision" text-rendering="geometricPrecision" project-id="374c018dd3754a73b3ca3e02418a302d" export-id="e457696d7edd41659912841ed307e7b1" cached="false">
    <defs>
        <radialGradient id="e4MwTEul0rL39-fill" cx="0" cy="0" r="0.5" spreadMethod="pad" gradientUnits="objectBoundingBox" gradientTransform="translate(0.5 0.5)">
            <stop id="e4MwTEul0rL39-fill-0" offset="0%" stop-color="#ececec"/>
            <stop id="e4MwTEul0rL39-fill-1" offset="100%" stop-color="#fff"/>
        </radialGradient>
    </defs>
    <g transform="matrix(.636527 0 0 0.644 54.54031 39.844051)">
        <path d="M252.31,7.5L7.5,252.31l72.74,72.74L325.05,80.24L252.31,7.5Zm8.578,84.574c-6.588-6.588-6.588-17.268,0-23.856s17.268-6.588,23.856,0c6.587,6.587,6.587,17.268,0,23.856-6.588,6.587-17.269,6.587-23.856,0Z" fill="#28d2e4"/>
        <g>
            <path d="M255.584,97.377c.001,0,.001,0,0,0c9.501,9.501,24.962,9.5,34.462,0c9.522-9.52,9.527-24.938.001-34.462-9.503-9.501-24.961-9.501-34.462,0-9.525,9.522-9.526,24.937-.001,34.462Zm10.608-23.856c3.661-3.661,9.585-3.662,13.249,0c3.659,3.657,3.663,9.587-.001,13.249-3.652,3.653-9.597,3.652-13.249,0h.001c-3.663-3.66-3.664-9.587,0-13.249Z" fill="#22313f"/>
            <path d="M330.353,74.936L257.614,2.196c-2.928-2.927-7.678-2.929-10.607,0C216.652,32.551,25.51,223.693,2.197,247.007c-2.929,2.929-2.929,7.678,0,10.607l72.739,72.74c2.928,2.927,7.678,2.929,10.608,0L330.353,85.544c2.928-2.93,2.928-7.679,0-10.608ZM80.239,314.443L18.107,252.31l51.631-51.631l31.066,31.066c2.93,2.929,7.678,2.929,10.607,0s2.929-7.678,0-10.606L80.344,190.072l13.811-13.811l20.152,20.152c2.93,2.929,7.678,2.929,10.607,0s2.929-7.678,0-10.606l-20.153-20.152l13.812-13.812l20.152,20.152c2.93,2.929,7.678,2.929,10.607,0s2.929-7.678,0-10.606l-20.153-20.153l13.811-13.811l20.152,20.152c2.93,2.929,7.678,2.929,10.607,0s2.929-7.678,0-10.607l-20.153-20.153l13.811-13.811l31.066,31.066c2.93,2.929,7.678,2.929,10.607,0s2.929-7.678,0-10.607L178.013,92.399l74.292-74.293l62.133,62.133L80.239,314.443Z" fill="#22313f"/>
        </g>
    </g>
    <g transform="matrix(3.116914 0 0 3.407791 56.081506 30.841872)">
        <path d="M28.8,21.9l-5.6,5.8L17.7,22l5.5-5.8l5.6,5.7Z" fill="#3e4347"/>
        <g>
            <path d="M16.7,5.1L6.9,15.2c-.4.4-.4,1,0,1.3l3.7,3.8l3.7,3.8c.4.4.9.4,1.3,0L25.4,14c.4-.4.4-1,0-1.3L18,5.1c-.3-.4-.9-.4-1.3,0" fill="#94989b"/>
            <path d="M0.3,22c-.4.4-.4,1,0,1.3L7.6,31c.4.4,1,.4,1.4,0c0,0,2-2.1,2.1-2.2L2.5,19.9c-.2,0-2.2,2.1-2.2,2.1" fill="#94989b"/>
        </g>
        <g>
            <path d="M10.5,20.4L6.8,16.6c0,0,1.2,2.1-2,2.5-1.3.2-2.1.4-2.5.8l8.6,8.9c.4-.5.6-1.3.8-2.6.4-3.3,2.4-2,2.4-2l-3.6-3.8" fill="#3e4347"/>
            <path d="M39.6,4.3C29.5,-6,18.4,5.5,18.4,5.5l6.5,6.7c0,0,6.3-8.5,14.2-6.1.9.3,1.7.7,2,.5.4-.3-.8-1.6-1.5-2.3" fill="#3e4347"/>
        </g>
        <path d="M26,24.8l-3.6,3.7c0,0,1.9,3,5.1,6.3c3.5,3.6,8.2,5.7,12.9,10.5c7,7.2,12.8,15,14.9,17.9.8,1.1.9,1,1.9,0l3-3.1L26,24.8" fill="#f2b200"/>
        <path d="M26,24.8l3.6-3.7c0,0,2.9,1.9,6.1,5.2c3.5,3.6,5.5,8.5,10.2,13.3c7,7.2,14.5,13.2,17.4,15.4c1.1.8,1,1,0,2l-3,3.1L26,24.8" fill="#ffce31"/>
    </g>
    <g transform="matrix(3.086648 0 0 3.074853 89.385699 76.203528)">
        <path d="M40,16h-32v24c0,2.2,1.8,4,4,4h24c2.2,0,4-1.8,4-4v-24Z" fill="#616161"/>
        <path d="M36,4h-24C9.8,4,8,5.8,8,8v9h32v-9c0-2.2-1.8-4-4-4Z" fill="#424242"/>
        <path d="M36,14h-24c-.6,0-1-.4-1-1v-5c0-.6.4-1,1-1h24c.6,0,1,.4,1,1v5c0,.6-.4,1-1,1Z" fill="#9ccc65"/>
        <path d="M36,23h-3c-.6,0-1-.4-1-1v-2c0-.6.4-1,1-1h3c.6,0,1,.4,1,1v2c0,.6-.4,1-1,1Z" fill="#ff5252"/>
        <g>
            <path d="M15,23h-3c-.6,0-1-.4-1-1v-2c0-.6.4-1,1-1h3c.6,0,1,.4,1,1v2c0,.6-.4,1-1,1Z" fill="#e0e0e0"/>
            <path d="M22,23h-3c-.6,0-1-.4-1-1v-2c0-.6.4-1,1-1h3c.6,0,1,.4,1,1v2c0,.6-.4,1-1,1Z" fill="#e0e0e0"/>
            <path d="M29,23h-3c-.6,0-1-.4-1-1v-2c0-.6.4-1,1-1h3c.6,0,1,.4,1,1v2c0,.6-.4,1-1,1Z" fill="#e0e0e0"/>
            <path d="M15,29h-3c-.6,0-1-.4-1-1v-2c0-.6.4-1,1-1h3c.6,0,1,.4,1,1v2c0,.6-.4,1-1,1Z" fill="#e0e0e0"/>
            <path d="M22,29h-3c-.6,0-1-.4-1-1v-2c0-.6.4-1,1-1h3c.6,0,1,.4,1,1v2c0,.6-.4,1-1,1Z" fill="#e0e0e0"/>
            <path d="M29,29h-3c-.6,0-1-.4-1-1v-2c0-.6.4-1,1-1h3c.6,0,1,.4,1,1v2c0,.6-.4,1-1,1Z" fill="#e0e0e0"/>
            <path d="M15,35h-3c-.6,0-1-.4-1-1v-2c0-.6.4-1,1-1h3c.6,0,1,.4,1,1v2c0,.6-.4,1-1,1Z" fill="#e0e0e0"/>
            <path d="M22,35h-3c-.6,0-1-.4-1-1v-2c0-.6.4-1,1-1h3c.6,0,1,.4,1,1v2c0,.6-.4,1-1,1Z" fill="#e0e0e0"/>
            <path d="M29,35h-3c-.6,0-1-.4-1-1v-2c0-.6.4-1,1-1h3c.6,0,1,.4,1,1v2c0,.6-.4,1-1,1Z" fill="#e0e0e0"/>
            <path d="M15,41h-3c-.6,0-1-.4-1-1v-2c0-.6.4-1,1-1h3c.6,0,1,.4,1,1v2c0,.6-.4,1-1,1Z" fill="#e0e0e0"/>
            <path d="M22,41h-3c-.6,0-1-.4-1-1v-2c0-.6.4-1,1-1h3c.6,0,1,.4,1,1v2c0,.6-.4,1-1,1Z" fill="#e0e0e0"/>
            <path d="M29,41h-3c-.6,0-1-.4-1-1v-2c0-.6.4-1,1-1h3c.6,0,1,.4,1,1v2c0,.6-.4,1-1,1Z" fill="#e0e0e0"/>
        </g>
        <g>
            <path d="M36,29h-3c-.6,0-1-.4-1-1v-2c0-.6.4-1,1-1h3c.6,0,1,.4,1,1v2c0,.6-.4,1-1,1Z" fill="#bdbdbd"/>
            <path d="M36,35h-3c-.6,0-1-.4-1-1v-2c0-.6.4-1,1-1h3c.6,0,1,.4,1,1v2c0,.6-.4,1-1,1Z" fill="#bdbdbd"/>
            <path d="M36,41h-3c-.6,0-1-.4-1-1v-2c0-.6.4-1,1-1h3c.6,0,1,.4,1,1v2c0,.6-.4,1-1,1Z" fill="#bdbdbd"/>
        </g>
    </g>
</svg>